<svg xmlns="http://www.w3.org/2000/svg" viewBox="0 0 64 64" role="img" aria-labelledby="title desc">
  <title id="title">Beer Designer</title>
  <desc id="desc">Vaso Nonic con cerveza IPA</desc>
  <defs>
    <linearGradient id="tile" x1="8" y1="5" x2="57" y2="61" gradientUnits="userSpaceOnUse">
      <stop stop-color="#17604d"/>
      <stop offset="1" stop-color="#0d3f35"/>
    </linearGradient>
    <linearGradient id="ipa" x1="23" y1="25" x2="41" y2="55" gradientUnits="userSpaceOnUse">
      <stop stop-color="#ffc857"/>
      <stop offset=".55" stop-color="#ed9227"/>
      <stop offset="1" stop-color="#c75d1b"/>
    </linearGradient>
    <clipPath id="nonic">
      <path d="M19 12h26l-1.6 12.2c4.1 3.3 4.2 8.2.3 11.5L41 52.5c-.4 2.6-2.7 4.5-5.3 4.5h-7.4c-2.6 0-4.9-1.9-5.3-4.5l-2.7-16.8c-3.9-3.3-3.8-8.2.3-11.5L19 12Z"/>
    </clipPath>
  </defs>
  <rect x="2" y="2" width="60" height="60" rx="15" fill="url(#tile)"/>
  <path d="M19 12h26l-1.6 12.2c4.1 3.3 4.2 8.2.3 11.5L41 52.5c-.4 2.6-2.7 4.5-5.3 4.5h-7.4c-2.6 0-4.9-1.9-5.3-4.5l-2.7-16.8c-3.9-3.3-3.8-8.2.3-11.5L19 12Z" fill="#fff8e7" opacity=".18"/>
  <g clip-path="url(#nonic)">
    <path d="M16 26c5-2.5 9 1.7 15-.1 6.2-1.9 11.3-2.1 17 .8V60H16V26Z" fill="url(#ipa)"/>
    <path d="M17.5 24.4c4.8-2.7 8.6 1.2 14.5-.4 6-1.7 10.7-1.8 15.3.7l.9 4.7c-5.2-2.6-10.3-2.4-16-.8-5.8 1.7-9.8-2.1-14.8.4l.1-4.6Z" fill="#fff5d6"/>
    <path d="M24 16h4l-2 38h-3.5L24 16Z" fill="#fff" opacity=".28"/>
    <circle cx="35" cy="36" r="1.2" fill="#ffe39b" opacity=".8"/>
    <circle cx="38.5" cy="43" r=".8" fill="#ffe39b" opacity=".75"/>
    <circle cx="33" cy="48" r=".65" fill="#ffe39b" opacity=".7"/>
  </g>
  <path d="M19 12h26l-1.6 12.2c4.1 3.3 4.2 8.2.3 11.5L41 52.5c-.4 2.6-2.7 4.5-5.3 4.5h-7.4c-2.6 0-4.9-1.9-5.3-4.5l-2.7-16.8c-3.9-3.3-3.8-8.2.3-11.5L19 12Z" fill="none" stroke="#fff8e7" stroke-width="2.6" stroke-linejoin="round"/>
  <path d="M18.5 11.8h27" stroke="#fff8e7" stroke-width="2.6" stroke-linecap="round"/>
</svg>
