<svg xmlns="http://www.w3.org/2000/svg" viewBox="0 0 64 64" role="img" aria-label="Craft beer icon">
  <defs>
    <linearGradient id="beer" x1="18" x2="43" y1="18" y2="56" gradientUnits="userSpaceOnUse">
      <stop offset="0" stop-color="#ffd86a"/>
      <stop offset="0.48" stop-color="#f1a31c"/>
      <stop offset="1" stop-color="#9f4a16"/>
    </linearGradient>
    <linearGradient id="glass" x1="15" x2="45" y1="9" y2="58" gradientUnits="userSpaceOnUse">
      <stop offset="0" stop-color="#ffffff" stop-opacity="0.9"/>
      <stop offset="0.5" stop-color="#ffffff" stop-opacity="0.18"/>
      <stop offset="1" stop-color="#ffffff" stop-opacity="0.5"/>
    </linearGradient>
    <clipPath id="pint">
      <path d="M16 16h30l-4 37a7 7 0 0 1-7 6H27a7 7 0 0 1-7-6L16 16Z"/>
    </clipPath>
  </defs>

  <rect width="64" height="64" rx="14" fill="#20231f"/>
  <path d="M48 25h5c4 0 7 3 7 7v8c0 5-4 9-9 9h-5v-6h5c2 0 3-1 3-3v-8c0-1-1-2-2-2h-4v-5Z" fill="#f3f0ea"/>
  <path d="M14 14h34l-4.2 39.2A9 9 0 0 1 35 61h-8a9 9 0 0 1-8.8-7.8L14 14Z" fill="#f3f0ea"/>

  <g clip-path="url(#pint)">
    <path d="M13 24c6-3 10 2 16 0s11-3 20 1v36H13V24Z" fill="url(#beer)"/>
    <path d="M14 17c3-6 9-3 11-6 3-4 8-4 11 0 2 3 8 1 10 6 1 3-1 7-5 7H19c-4 0-7-3-5-7Z" fill="#fff7dc"/>
    <circle cx="22" cy="18" r="4" fill="#fff7dc"/>
    <circle cx="32" cy="15" r="5" fill="#fff7dc"/>
    <circle cx="42" cy="18" r="4" fill="#fff7dc"/>
    <path d="M23 28h5v26h-5V28Zm10-2h5v28h-5V26Z" fill="#ffe49b" opacity="0.58"/>
    <path d="M18 16h8l-3 42h-5l-3-42h3Z" fill="url(#glass)"/>
  </g>

  <path d="M14 14h34l-4.2 39.2A9 9 0 0 1 35 61h-8a9 9 0 0 1-8.8-7.8L14 14Z" fill="none" stroke="#20231f" stroke-opacity="0.35" stroke-width="2"/>
</svg>
