<svg xmlns="http://www.w3.org/2000/svg">
  <defs>
    <style>
      .line{fill:none;stroke:#3b241b;stroke-width:3;stroke-linecap:round;stroke-linejoin:round}.thin{fill:none;stroke:#3b241b;stroke-width:2;stroke-linecap:round;stroke-linejoin:round}.ink{fill:#3b241b}.cream{fill:#fff3d7}.amber{fill:#f2a43a}.copper{fill:#bf5a27}.malt{fill:#d98a32}.green{fill:#49794d}.light-green{fill:#7fa45d}.steel{fill:#d7d2c6}.wood{fill:#a75a2d}.dark-wood{fill:#71371f}.white{fill:#fffaf0}
    </style>
  </defs>

  <symbol id="hop-pirate" viewBox="0 0 128 128">
    <rect width="128" height="128" rx="26" fill="#f4bd57"/><circle cx="103" cy="25" r="18" fill="#df762e" opacity=".7"/>
    <path class="ink" d="M34 38c7-18 49-27 67 0-20-5-47-5-67 0Z"/><path class="cream" d="M58 24h13l2 8H55l3-8Z"/><path class="line" d="M34 38c7-18 49-27 67 0-20-5-47-5-67 0Z"/>
    <path class="green" d="M64 38c21 0 34 19 30 41-4 23-25 38-30 40-5-2-26-17-30-40-4-22 9-41 30-41Z"/>
    <path class="thin" d="M64 43v70M64 53 48 45m16 20L42 57m22 22L38 72m26 21-20-7m20-33 16-8M64 65l22-8M64 79l26-7M64 93l20-7"/>
    <path class="ink" d="M42 61c7-8 16-8 23 0-5 7-18 7-23 0Z"/><path class="line" d="m60 56 9 11"/><circle cx="79" cy="62" r="3.2" class="ink"/><path class="line" d="M74 82c6 5 13 5 18-1"/>
  </symbol>

  <symbol id="hop-viking" viewBox="0 0 128 128">
    <rect width="128" height="128" rx="26" fill="#d9a96d"/><path fill="#7e3d25" opacity=".25" d="M0 88 36 52l24 18 26-30 42 44v44H0Z"/>
    <path class="green" d="M64 35c20 0 33 20 29 42-4 24-24 39-29 42-5-3-25-18-29-42-4-22 9-42 29-42Z"/>
    <path class="thin" d="M64 42v70M64 55 46 46m18 22L40 57m24 25-27-10m27 24-21-9m21-32 18-9M64 68l24-11M64 82l27-10M64 96l21-9"/>
    <path class="steel" d="M38 42c5-20 47-20 52 0l-8 7H46l-8-7Z"/><path class="line" d="M38 42c5-20 47-20 52 0l-8 7H46l-8-7Zm26-17v24"/>
    <path class="cream" d="M40 31C29 29 23 22 24 14c8 2 15 8 18 15m46 2c11-2 17-9 16-17-8 2-15 8-18 15"/><path class="line" d="M40 31C29 29 23 22 24 14c8 2 15 8 18 15m46 2c11-2 17-9 16-17-8 2-15 8-18 15"/>
    <circle cx="53" cy="67" r="3" class="ink"/><circle cx="75" cy="67" r="3" class="ink"/><path class="line" d="m48 59 9-2m14 0 9 2M52 83c7 7 17 7 24 0"/>
  </symbol>

  <symbol id="hop-astronaut" viewBox="0 0 128 128">
    <rect width="128" height="128" rx="26" fill="#315c68"/><circle cx="24" cy="24" r="3" class="cream"/><circle cx="103" cy="38" r="2" class="cream"/><circle cx="93" cy="17" r="1.5" class="cream"/><path class="thin" stroke="#f4bd57" d="m17 74 7-3m84 15 6 4"/>
    <circle cx="64" cy="57" r="39" fill="#e7e0d1"/><circle cx="64" cy="55" r="31" fill="#8dc2c5"/><path fill="#d5f2ed" opacity=".7" d="M43 34c12-10 30-11 43-2-22 2-34 13-42 30-4-10-4-20-1-28Z"/>
    <path class="green" d="M64 29c17 0 28 14 25 30-3 17-20 28-25 31-5-3-22-14-25-31-3-16 8-30 25-30Z"/><path class="thin" d="M64 34v50M64 43l-13-7m13 17-19-9m19 21-21-8m21 20-16-7m16-27 13-7M64 53l18-9M64 65l21-8M64 77l16-7"/>
    <circle cx="56" cy="55" r="2.5" class="ink"/><circle cx="72" cy="55" r="2.5" class="ink"/><path class="thin" d="M57 67c5 4 10 4 14 0"/>
    <path class="white" d="M39 88h50l11 35H28l11-35Z"/><path class="line" d="M39 88h50l11 35H28l11-35Zm15 9h20v15H54Z"/><circle cx="61" cy="104" r="2" fill="#df762e"/><circle cx="68" cy="104" r="2" fill="#49794d"/>
  </symbol>

  <symbol id="mad-brewer" viewBox="0 0 128 128">
    <rect width="128" height="128" rx="26" fill="#e7d7b9"/><circle cx="104" cy="26" r="21" fill="#73a17a" opacity=".35"/>
    <path class="white" d="m33 54-12-9 15-4-8-15 17 6 2-18 13 13 11-16 7 19 17-10-1 20 20-2-13 16c9 30-6 62-37 62S25 82 33 54Z"/><path class="line" d="m33 54-12-9 15-4-8-15 17 6 2-18 13 13 11-16 7 19 17-10-1 20 20-2-13 16"/>
    <path fill="#e2a56e" d="M39 50c4-16 45-16 49 0l-5 40c-9 15-30 15-39 0l-5-40Z"/><path class="line" d="M39 50c4-16 45-16 49 0l-5 40c-9 15-30 15-39 0l-5-40Z"/>
    <rect x="35" y="52" width="24" height="17" rx="7" fill="#82b7ae" class="line"/><rect x="69" y="52" width="24" height="17" rx="7" fill="#82b7ae" class="line"/><path class="line" d="M59 59h10"/><circle cx="48" cy="60" r="3" class="ink"/><circle cx="80" cy="60" r="3" class="ink"/><path class="line" d="M52 82c8 5 16 5 24 0"/>
    <path class="white" d="M36 96h56l12 32H24l12-32Z"/><path class="line" d="M36 96h56l12 32H24l12-32Z"/>
    <path class="cream" d="M91 87h16l-3 10 11 25H83l11-25-3-10Z"/><path class="line" d="M91 87h16l-3 10 11 25H83l11-25-3-10Z"/><path fill="#df762e" d="m89 110 20-1 4 11H85Z"/><circle cx="101" cy="105" r="3" fill="#df762e"/>
  </symbol>

  <symbol id="brew-wizard" viewBox="0 0 128 128">
    <rect width="128" height="128" rx="26" fill="#633c59"/><circle cx="24" cy="24" r="14" fill="#f4bd57" opacity=".8"/><path class="thin" stroke="#f4bd57" d="m97 19 2 5 5 2-5 2-2 5-2-5-5-2 5-2 2-5Z"/>
    <path fill="#355c52" d="M22 49c21-24 29-37 38-43 3 15 21 24 42 38-26-4-53 0-80 5Z"/><path class="line" d="M22 49c21-24 29-37 38-43 3 15 21 24 42 38-26-4-53 0-80 5Z"/><path fill="#f4bd57" d="m50 23 2 5 5 2-5 2-2 5-2-5-5-2 5-2 2-5Z"/>
    <ellipse cx="62" cy="58" rx="29" ry="24" fill="#d99a65" class="line"/><circle cx="52" cy="57" r="3" class="ink"/><circle cx="72" cy="57" r="3" class="ink"/>
    <path class="white" d="M38 69c8 4 14 6 24 3 10 3 16 1 24-3-2 29-10 42-24 49-14-7-22-20-24-49Z"/><path class="line" d="M38 69c8 4 14 6 24 3 10 3 16 1 24-3-2 29-10 42-24 49-14-7-22-20-24-49Zm16 9 8 34 8-34"/>
    <path class="amber" d="M88 72h20v31H88Z"/><path class="line" d="M88 72h20v31H88Zm20 7h5c7 0 7 16 0 16h-5"/><path fill="#fff0c1" d="M89 73h18v7H89Z"/><path class="thin" stroke="#f4bd57" d="m97 60 2 5 5 2-5 2-2 5-2-5-5-2 5-2 2-5Z"/>
  </symbol>

  <symbol id="beer-robot" viewBox="0 0 128 128">
    <rect width="128" height="128" rx="26" fill="#c56b37"/><path fill="#f1c06c" opacity=".35" d="M0 84 44 40l25 22 23-25 36 36v55H0Z"/>
    <path class="steel" d="M35 33h58v47H35Z"/><path class="line" d="M35 33h58v47H35Zm29 0V20m-7 0h14"/><circle cx="51" cy="53" r="8" fill="#f4bd57" class="line"/><circle cx="77" cy="53" r="8" fill="#f4bd57" class="line"/><path class="line" d="M48 70h32"/>
    <path class="steel" d="M30 80h68l8 42H22l8-42Z"/><path class="line" d="M30 80h68l8 42H22l8-42Zm34 0v42M37 91h16v18H37Z"/><circle cx="45" cy="100" r="4" class="copper"/><path class="thin" d="M74 94h20m-20 9h20m-20 9h20"/>
    <path class="line" d="M22 89H12v23h10m84-23h10v23h-10"/><path class="amber" d="M90 76h18v27H90Z"/><path class="line" d="M90 76h18v27H90Zm18 7h5c5 0 5 13 0 13h-5"/><path class="cream" d="M91 77h16v6H91Z"/>
  </symbol>

  <symbol id="hop-monster" viewBox="0 0 128 128">
    <rect width="128" height="128" rx="26" fill="#8ea767"/><circle cx="104" cy="21" r="20" fill="#f2a43a" opacity=".45"/>
    <path class="green" d="M64 14c8 9 16 11 25 8-1 9 3 15 12 19-7 5-8 12-4 21 7 20-7 49-33 62-26-13-40-42-33-62 4-9 3-16-4-21 9-4 13-10 12-19 9 3 17 1 25-8Z"/><path class="line" d="M64 14c8 9 16 11 25 8-1 9 3 15 12 19-7 5-8 12-4 21 7 20-7 49-33 62-26-13-40-42-33-62 4-9 3-16-4-21 9-4 13-10 12-19 9 3 17 1 25-8Z"/>
    <path class="thin" d="M64 23v92M64 38 42 25m22 29L33 40m31 31L31 57m33 31-28-12m28 30-20-11m20-57 22-13M64 54l31-14M64 71l33-14M64 88l28-12M64 106l20-11"/>
    <path class="cream" d="M40 53c7-10 17-10 24 0-7 11-17 11-24 0Zm25 0c7-10 17-10 24 0-7 11-17 11-24 0Z"/><circle cx="53" cy="54" r="4" class="ink"/><circle cx="76" cy="54" r="4" class="ink"/><path class="ink" d="M46 75c11 10 25 10 36 0-1 18-35 18-36 0Z"/><path class="cream" d="m54 78 5 8 5-8 5 8 5-8Z"/>
  </symbol>

  <symbol id="beer-skull" viewBox="0 0 128 128">
    <rect width="128" height="128" rx="26" fill="#2d1c18"/><circle cx="64" cy="55" r="43" fill="#d9b77b"/><path class="cream" d="M36 54c0-28 56-28 56 0 0 16-8 22-15 27v18H51V81c-7-5-15-11-15-27Z"/><path class="line" d="M36 54c0-28 56-28 56 0 0 16-8 22-15 27v18H51V81c-7-5-15-11-15-27Z"/>
    <path class="ink" d="M43 57c4-11 16-13 21-2-3 12-15 16-21 2Zm42 0c-4-11-16-13-21-2 3 12 15 16 21 2Z"/><path class="line" d="m64 65-6 13h12l-6-13Zm-10 23h20M58 88v11m6-11v11m6-11v11"/>
    <path class="green" d="M21 37c-10-12-3-25 13-25 1 15-3 23-13 25Zm86 0c10-12 3-25-13-25-1 15 3 23 13 25Z"/><path class="thin" stroke="#d9b77b" d="M28 106c-7 4-13 10-18 18m9-11-9-2m16-4-2-10m76 9c7 4 13 10 18 18m-9-11 9-2m-16-4 2-10"/>
  </symbol>

  <symbol id="brewmaster" viewBox="0 0 128 128">
    <rect width="128" height="128" rx="26" fill="#d88447"/><circle cx="99" cy="30" r="23" fill="#f4bd57" opacity=".55"/>
    <path class="cream" d="M31 41c3-24 63-24 66 0-22-5-44-5-66 0Z"/><path class="copper" d="M32 36h64v13H32Z"/><path class="line" d="M31 41c3-24 63-24 66 0m-64-5h62v13H33Z"/>
    <path fill="#dfa36d" d="M38 48c3-12 49-12 52 0l-4 36c-6 18-38 18-44 0l-4-36Z"/><path class="line" d="M38 48c3-12 49-12 52 0l-4 36c-6 18-38 18-44 0l-4-36Z"/><circle cx="53" cy="61" r="3" class="ink"/><circle cx="75" cy="61" r="3" class="ink"/>
    <path class="dark-wood" d="M43 75c5-5 14-5 21 1 7-6 16-6 21-1-1 26-41 26-42 0Z"/><path class="cream" d="M53 77c7 4 15 4 22 0-1 9-21 9-22 0Z"/>
    <path class="green" d="M31 98h66l9 30H22l9-30Z"/><path class="line" d="M31 98h66l9 30H22l9-30Zm18 0v30m30-30v30"/><path class="cream" d="M55 105h18v18H55Z"/><path class="thin" d="M64 108c7 4 6 11 0 13-6-2-7-9 0-13Z"/>
  </symbol>

  <symbol id="homebrewer" viewBox="0 0 128 128">
    <rect width="128" height="128" rx="26" fill="#e9c17c"/><path fill="#7d9b68" opacity=".35" d="M0 91 32 56l24 24 30-38 42 50v36H0Z"/>
    <circle cx="62" cy="47" r="25" fill="#d99a65" class="line"/><path class="dark-wood" d="M37 45c2-31 50-32 52 0-13-11-39-13-52 0Z"/><path class="line" d="M37 45c2-31 50-32 52 0"/><circle cx="53" cy="51" r="3" class="ink"/><circle cx="72" cy="51" r="3" class="ink"/><path class="line" d="M54 63c6 4 12 4 18 0"/>
    <path class="copper" d="M35 72h55l10 56H25l10-56Z"/><path class="line" d="M35 72h55l10 56H25l10-56Zm13 0 2 56m27-56-2 56"/>
    <path class="wood" d="M15 22h9v90h-9Z"/><path class="line" d="M15 22h9v90h-9Zm-5 5c0-10 19-10 19 0v12c0 10-19 10-19 0V27Z"/>
    <path class="amber" d="M91 66h20v31H91Z"/><path class="line" d="M91 66h20v31H91Zm20 7h5c7 0 7 16 0 16h-5"/><path class="cream" d="M92 67h18v7H92Z"/>
  </symbol>

  <symbol id="barrel-brewer" viewBox="0 0 128 128">
    <rect width="128" height="128" rx="26" fill="#6b3c2b"/><circle cx="99" cy="25" r="20" fill="#e39a3d" opacity=".5"/>
    <path class="wood" d="M33 20c19-6 43-6 62 0l7 17-3 66-8 18c-17 6-37 6-54 0l-8-18-3-66 7-17Z"/><path class="line" d="M33 20c19-6 43-6 62 0l7 17-3 66-8 18c-17 6-37 6-54 0l-8-18-3-66 7-17Z"/>
    <path class="thin" d="M45 19 42 122m22-105v108m19-106 3 103"/><path class="steel" d="M28 35h73l2 9H27l1-9Zm-1 62h75l-1 9H28l-1-9Z"/><path class="line" d="M28 35h73l2 9H27l1-9Zm-1 62h75l-1 9H28l-1-9Z"/>
    <circle cx="51" cy="65" r="5" class="cream"/><circle cx="78" cy="65" r="5" class="cream"/><circle cx="51" cy="65" r="2.5" class="ink"/><circle cx="78" cy="65" r="2.5" class="ink"/><path class="line" d="M51 82c8 7 19 7 27 0"/>
    <path class="line" d="M29 70 14 79m85-9 15 9"/><path class="amber" d="M96 72h16v24H96Z"/><path class="thin" d="M96 72h16v24H96Zm16 6h4c5 0 5 12 0 12h-4"/>
  </symbol>

  <symbol id="water-alchemist" viewBox="0 0 128 128">
    <rect width="128" height="128" rx="26" fill="#5b8990"/><circle cx="101" cy="24" r="20" fill="#f4bd57" opacity=".45"/><path fill="#d8eee9" opacity=".22" d="M0 92 29 67l22 18 31-42 46 49v36H0Z"/>
    <path fill="#9cd5d5" d="M64 12C57 29 34 50 34 75c0 19 13 36 30 36s30-17 30-36C94 50 71 29 64 12Z"/><path class="line" d="M64 12C57 29 34 50 34 75c0 19 13 36 30 36s30-17 30-36C94 50 71 29 64 12Z"/>
    <path fill="#dff7ef" opacity=".7" d="M54 36C45 51 40 62 40 75c0 12 6 23 15 28-6-22 0-43 14-66-5 1-10 1-15-1Z"/><circle cx="54" cy="71" r="4" class="ink"/><circle cx="75" cy="71" r="4" class="ink"/><path class="line" d="M55 86c6 5 13 5 19 0"/>
    <path class="cream" d="M14 77h19l-3 10 10 28H7l10-28-3-10Z"/><path class="line" d="M14 77h19l-3 10 10 28H7l10-28-3-10Z"/><path fill="#d7a84f" d="m11 102 25-1 4 12H7Z"/><circle cx="24" cy="96" r="3" fill="#f4bd57"/>
    <circle cx="101" cy="67" r="14" fill="#fff3d7" class="line"/><path class="thin" d="M101 67 109 61m-14 14h12"/><text x="93" y="98" fill="#fff3d7" font-family="sans-serif" font-size="9" font-weight="800">H₂O</text>
  </symbol>

  <symbol id="co2-bubble" viewBox="0 0 128 128">
    <rect width="128" height="128" rx="26" fill="#355b51"/><circle cx="24" cy="28" r="17" fill="#d7a84f" opacity=".5"/><path fill="#9cc9b4" opacity=".18" d="M0 88 35 55l27 25 27-38 39 42v44H0Z"/>
    <circle cx="65" cy="70" r="35" fill="#d9eee3" class="line"/><circle cx="41" cy="40" r="13" fill="#f7e6b7" class="line"/><circle cx="91" cy="33" r="17" fill="#c1dfd1" class="line"/><circle cx="103" cy="72" r="10" fill="#f7e6b7" class="line"/>
    <circle cx="55" cy="67" r="4" class="ink"/><circle cx="75" cy="67" r="4" class="ink"/><path class="line" d="M54 83c7 6 15 6 22 0"/><circle cx="46" cy="55" r="5" fill="#fff" opacity=".75"/>
    <path class="steel" d="M45 101h40l7 22H38l7-22Z"/><path class="line" d="M45 101h40l7 22H38l7-22Zm20 0v22"/><circle cx="65" cy="112" r="6" fill="#f4bd57" class="thin"/>
    <text x="49" y="53" fill="#3b241b" font-family="sans-serif" font-size="13" font-weight="950">CO₂</text><path class="thin" stroke="#f4bd57" d="m110 18 2 5 5 2-5 2-2 5-2-5-5-2 5-2 2-5Z"/>
  </symbol>

  <symbol id="golden-striker" viewBox="0 0 128 128">
    <rect width="128" height="128" rx="26" fill="#f2b35b"/><circle cx="101" cy="23" r="20" fill="#ffe3a2" opacity=".42"/>
    <path fill="#d77a2b" d="M0 83 18 76l20 5 25-11 25 10 22-6 18 8v46H0Z"/><path fill="#b95b21" opacity=".45" d="M0 96c21-11 42-11 64 0 22-11 43-11 64 0v32H0Z"/>
    <g fill="#fff4d8"><circle cx="17" cy="53" r="3"/><circle cx="17" cy="61" r="3"/><circle cx="11" cy="57" r="3"/><circle cx="23" cy="57" r="3"/><path d="M15 64h4v17h-4Z"/><circle cx="111" cy="53" r="3"/><circle cx="111" cy="61" r="3"/><circle cx="105" cy="57" r="3"/><circle cx="117" cy="57" r="3"/><path d="M109 64h4v17h-4Z"/></g>
    <ellipse cx="64" cy="111" rx="35" ry="8" fill="#71371f" opacity=".42"/>
    <path fill="#ebb038" d="M39 26c7-8 43-8 50 0l-2 61c-7 14-39 14-46 0l-2-61Z"/><path class="line" d="M39 26c7-8 43-8 50 0l-2 61c-7 14-39 14-46 0l-2-61Z"/>
    <ellipse cx="64" cy="26" rx="25" ry="8" fill="#fff1c9" class="thin"/><path fill="#fff3d7" d="M40 27c5 4 10 2 15 3 7 1 12 5 19 2 5-2 9-1 14-4l-1 14H40V27Z"/><path class="thin" d="M41 42h46"/>
    <path fill="#fff" opacity=".26" d="M45 44h8l-2 40c-1 6 1 9 5 13-8-2-12-6-14-11l2-42Z"/>
    <circle cx="55" cy="62" r="4" class="ink"/><circle cx="74" cy="62" r="4" class="ink"/><path class="line" d="M53 75c7 7 16 7 23 0"/>
    <path fill="#c83827" d="M27 78c23 10 51 10 74 0l8 16c-27 14-63 14-90 0l8-16Z"/><path class="line" d="M27 78c23 10 51 10 74 0l8 16c-27 14-63 14-90 0l8-16Z"/>
    <path class="cream" d="m38 82 13 4-7 17-13-4 7-17Zm39 4 13-4 7 17-13 4-7-17ZM58 87h13v14H58Z"/>
    <path fill="#c83827" d="m31 96-8 19 8-1 4 6 10-18-14-6Zm66 0 8 19-8-1-4 6-10-18 14-6Z"/><path class="line" d="m31 96-8 19 8-1 4 6 10-18m52-6 8 19-8-1-4 6-10-18"/><path class="thin" d="m27 107 11 5m63-5-11 5"/>
  </symbol>

  <symbol id="stout-keeper" viewBox="0 0 128 128">
    <rect width="128" height="128" rx="26" fill="#c9bda3"/><circle cx="100" cy="22" r="19" fill="#eee2be" opacity=".45"/>
    <path fill="#858476" d="M0 79 18 73l13 5 17-11 20 10 18-14 19 12 23-9v62H0Z"/><path fill="#68695e" d="m11 61 16 6-16 7Zm90-3 17 7-17 8Z"/><path class="thin" stroke="#68695e" d="M11 60v24m90-27v26"/><path fill="#6f6c60" opacity=".45" d="M0 96c24-12 45-10 64 1 19-11 40-13 64-1v32H0Z"/>
    <ellipse cx="64" cy="112" rx="35" ry="8" fill="#201916" opacity=".4"/>
    <path fill="#2a211c" d="M39 28c7-9 43-9 50 0l-2 59c-7 15-39 15-46 0l-2-59Z"/><path class="line" d="M39 28c7-9 43-9 50 0l-2 59c-7 15-39 15-46 0l-2-59Z"/>
    <ellipse cx="64" cy="28" rx="25" ry="8" fill="#fff1cf" class="thin"/><path fill="#fff3d7" d="M40 29c4 1 7-3 12-3 5 0 7 4 12 3 6-2 8-4 13-1 4 2 7 1 11 0l-1 15H40V29Z"/><path class="thin" d="M41 43h46"/>
    <path fill="#fff" opacity=".14" d="M45 44h8l-2 40c-1 6 1 9 5 13-8-2-12-6-14-11l2-42Z"/>
    <circle cx="55" cy="63" r="4" class="cream"/><circle cx="74" cy="63" r="4" class="cream"/><path class="line" stroke="#fff3d7" d="M53 76c7 7 16 7 23 0"/>
    <path fill="#24211e" d="M27 79c23 10 51 10 74 0l8 16c-27 14-63 14-90 0l8-16Z"/><path class="line" d="M27 79c23 10 51 10 74 0l8 16c-27 14-63 14-90 0l8-16Z"/>
    <path class="cream" d="m38 83 13 4-7 17-13-4 7-17Zm39 4 13-4 7 17-13 4-7-17ZM58 88h13v14H58Z"/>
    <path fill="#24211e" d="m31 97-8 19 8-1 4 6 10-18-14-6Zm66 0 8 19-8-1-4 6-10-18 14-6Z"/><path class="line" d="m31 97-8 19 8-1 4 6 10-18m52-6 8 19-8-1-4 6-10-18"/><path class="thin" stroke="#fff3d7" d="m27 108 11 5m63-5-11 5"/>
  </symbol>
</svg>
